<svg xmlns="http://www.w3.org/2000/svg" xmlns:xlink="http://www.w3.org/1999/xlink" width="500" zoomAndPan="magnify" viewBox="0 0 375 149.999998" height="200" preserveAspectRatio="xMidYMid meet" version="1.0"><defs><g/><clipPath id="0c391607e6"><path d="M 253 39 L 335 39 L 335 121 L 253 121 Z M 253 39 " clip-rule="nonzero"/></clipPath><clipPath id="7ab12990fa"><path d="M 293.863281 161.425781 L 251.027344 118.589844 L 332.457031 37.15625 L 375.292969 79.992188 Z M 293.863281 161.425781 " clip-rule="nonzero"/></clipPath><clipPath id="e4394f8a5d"><path d="M 251.046875 118.609375 L 293.882812 161.445312 L 375.316406 80.011719 L 332.476562 37.175781 Z M 251.046875 118.609375 " clip-rule="nonzero"/></clipPath><clipPath id="8f155f03cc"><path d="M 40 29 L 122 29 L 122 111 L 40 111 Z M 40 29 " clip-rule="nonzero"/></clipPath><clipPath id="5874e0b789"><path d="M 42.628906 112.703125 L -0.207031 69.867188 L 81.222656 -11.5625 L 124.058594 31.273438 Z M 42.628906 112.703125 " clip-rule="nonzero"/></clipPath><clipPath id="866608ffc4"><path d="M 42.628906 112.703125 L -0.207031 69.867188 L 81.222656 -11.5625 L 124.058594 31.273438 Z M 42.628906 112.703125 " clip-rule="nonzero"/></clipPath></defs><g fill="#212427" fill-opacity="1"><g transform="translate(52.534828, 98.096697)"><g><path d="M 11.828125 0 L 5.109375 0 L 5.109375 -36.140625 L 9.75 -36.140625 L 11.59375 -29.421875 C 12.65625 -31.285156 14.34375 -33.039062 16.65625 -34.6875 C 18.976562 -36.34375 21.367188 -37.359375 23.828125 -37.734375 L 24.625 -32.21875 C 22.65625 -32.21875 20.429688 -31.601562 17.953125 -30.375 C 15.472656 -29.15625 13.429688 -27.796875 11.828125 -26.296875 Z M 11.828125 0 "/></g></g></g><g fill="#212427" fill-opacity="1"><g transform="translate(77.961161, 98.096697)"><g><path d="M 31.734375 -10.71875 C 31.734375 -7.039062 33.125 -4.132812 35.90625 -2 L 31.734375 0.953125 L 25.265625 -4.875 C 23.078125 -2.800781 21.128906 -1.3125 19.421875 -0.40625 C 17.722656 0.5 15.710938 0.953125 13.390625 0.953125 C 11.078125 0.953125 8.945312 0.0625 7 -1.71875 C 5.050781 -3.5 4.078125 -6.578125 4.078125 -10.953125 L 4.078125 -36.140625 L 10.875 -36.140625 L 10.875 -10.546875 C 10.875 -7.992188 11.335938 -6.0625 12.265625 -4.75 C 13.203125 -3.445312 14.828125 -2.796875 17.140625 -2.796875 C 19.460938 -2.796875 22.066406 -4.503906 24.953125 -7.921875 L 24.953125 -36.140625 L 31.734375 -36.140625 Z M 31.734375 -10.71875 "/></g></g></g><g fill="#212427" fill-opacity="1"><g transform="translate(116.340523, 98.096697)"><g><path d="M 22.78125 -8.46875 L 22.78125 -16.703125 C 18.945312 -16.441406 15.800781 -15.59375 13.34375 -14.15625 C 10.894531 -12.71875 9.671875 -11.171875 9.671875 -9.515625 C 9.671875 -7.859375 10.097656 -6.429688 10.953125 -5.234375 C 11.804688 -4.035156 12.898438 -3.195312 14.234375 -2.71875 C 15.992188 -3.039062 17.859375 -3.921875 19.828125 -5.359375 C 21.796875 -6.796875 22.78125 -7.832031 22.78125 -8.46875 Z M 29.34375 -10.640625 C 29.34375 -6.847656 30.726562 -3.96875 33.5 -2 L 29.34375 1.046875 L 22.859375 -4.796875 C 18.648438 -0.960938 14.757812 0.953125 11.1875 0.953125 C 8.84375 0.953125 6.832031 0.207031 5.15625 -1.28125 C 3.476562 -2.769531 2.640625 -4.644531 2.640625 -6.90625 C 2.640625 -9.175781 3.316406 -11.054688 4.671875 -12.546875 C 6.035156 -14.046875 7.835938 -15.191406 10.078125 -15.984375 C 13.910156 -17.429688 18.144531 -18.335938 22.78125 -18.703125 L 22.78125 -26.21875 C 22.78125 -30.644531 20.222656 -32.859375 15.109375 -32.859375 C 12.179688 -32.859375 8.71875 -32.21875 4.71875 -30.9375 L 4 -32.9375 C 5.0625 -33.789062 6.910156 -34.695312 9.546875 -35.65625 C 12.191406 -36.613281 14.710938 -37.09375 17.109375 -37.09375 C 19.503906 -37.09375 21.515625 -36.769531 23.140625 -36.125 C 24.765625 -35.488281 25.960938 -34.769531 26.734375 -33.96875 C 27.515625 -33.175781 28.117188 -32.085938 28.546875 -30.703125 C 28.972656 -29.316406 29.210938 -28.222656 29.265625 -27.421875 C 29.316406 -26.617188 29.34375 -25.550781 29.34375 -24.21875 Z M 29.34375 -10.640625 "/></g></g></g><g fill="#212427" fill-opacity="1"><g transform="translate(151.841432, 98.096697)"><g><path d="M 12.953125 -31.015625 C 15.191406 -33.148438 17.148438 -34.695312 18.828125 -35.65625 C 20.503906 -36.613281 22.488281 -37.09375 24.78125 -37.09375 C 27.070312 -37.09375 29.191406 -36.1875 31.140625 -34.375 C 33.085938 -32.5625 34.0625 -29.445312 34.0625 -25.03125 L 34.0625 0 L 27.265625 0 L 27.265625 -24.21875 C 27.265625 -26.832031 26.796875 -28.789062 25.859375 -30.09375 C 24.929688 -31.40625 23.332031 -32.0625 21.0625 -32.0625 C 18.800781 -32.0625 16.175781 -30.566406 13.1875 -27.578125 L 13.1875 0 L 6.390625 0 L 6.390625 -25.109375 C 6.390625 -28.734375 5.03125 -31.632812 2.3125 -33.8125 L 6.390625 -36.859375 Z M 12.953125 -31.015625 "/></g></g></g><g fill="#212427" fill-opacity="1"><g transform="translate(191.819934, 98.096697)"><g><path d="M 33.90625 -10.71875 C 33.90625 -7.039062 35.265625 -4.109375 37.984375 -1.921875 L 33.90625 1.046875 L 27.34375 -4.796875 C 25.207031 -2.773438 23.285156 -1.3125 21.578125 -0.40625 C 19.878906 0.5 18.125 0.953125 16.3125 0.953125 C 14.5 0.953125 12.898438 0.6875 11.515625 0.15625 C 10.128906 -0.375 8.675781 -1.265625 7.15625 -2.515625 C 5.632812 -3.765625 4.40625 -5.734375 3.46875 -8.421875 C 2.539062 -11.117188 2.078125 -14.597656 2.078125 -18.859375 C 2.078125 -23.128906 3.34375 -27.222656 5.875 -31.140625 C 8.40625 -35.054688 11.882812 -37.015625 16.3125 -37.015625 C 19.613281 -37.015625 23.210938 -35.789062 27.109375 -33.34375 L 27.109375 -54.609375 L 33.90625 -54.609375 Z M 27.109375 -8.078125 L 27.109375 -30.375 C 24.273438 -32.25 21.6875 -33.1875 19.34375 -33.1875 C 16.257812 -33.1875 13.78125 -31.734375 11.90625 -28.828125 C 10.039062 -25.921875 9.109375 -22.28125 9.109375 -17.90625 C 9.109375 -13.539062 9.785156 -10.035156 11.140625 -7.390625 C 12.503906 -4.753906 14.203125 -3.171875 16.234375 -2.640625 C 18.097656 -2.796875 19.921875 -3.242188 21.703125 -3.984375 C 23.492188 -4.734375 24.84375 -5.492188 25.75 -6.265625 C 26.65625 -7.046875 27.109375 -7.648438 27.109375 -8.078125 Z M 27.109375 -8.078125 "/></g></g></g><g fill="#212427" fill-opacity="1"><g transform="translate(231.798436, 98.096697)"><g><path d="M 8.390625 -19.671875 C 8.390625 -13.910156 9.679688 -9.765625 12.265625 -7.234375 C 14.859375 -4.703125 18.003906 -3.4375 21.703125 -3.4375 C 25.410156 -3.4375 28.835938 -4.15625 31.984375 -5.59375 L 31.984375 -2.796875 C 27.609375 -0.296875 23.421875 0.953125 19.421875 0.953125 C 14.253906 0.953125 10.070312 -0.613281 6.875 -3.75 C 3.675781 -6.894531 2.078125 -11.453125 2.078125 -17.421875 C 2.078125 -23.398438 3.847656 -28.171875 7.390625 -31.734375 C 10.941406 -35.304688 15.222656 -37.09375 20.234375 -37.09375 C 24.117188 -37.09375 27.367188 -35.5625 29.984375 -32.5 C 32.597656 -29.4375 33.90625 -25.160156 33.90625 -19.671875 Z M 16.15625 -33.34375 C 14.289062 -32.4375 12.691406 -30.984375 11.359375 -28.984375 C 10.023438 -26.984375 9.144531 -24.675781 8.71875 -22.0625 L 27.421875 -22.0625 C 27.265625 -24.300781 26.742188 -26.21875 25.859375 -27.8125 C 24.984375 -29.414062 23.929688 -30.59375 22.703125 -31.34375 C 20.515625 -32.675781 18.332031 -33.34375 16.15625 -33.34375 Z M 16.15625 -33.34375 "/></g></g></g><g fill="#212427" fill-opacity="1"><g transform="translate(269.298273, 98.096697)"><g><path d="M 17.671875 1.046875 L 16.46875 1.046875 L 0.796875 -36.140625 L 7.828125 -36.140625 L 18.875 -8.15625 L 29.34375 -36.140625 L 32.375 -36.140625 Z M 17.671875 1.046875 "/></g></g></g><g fill="#212427" fill-opacity="1"><g transform="translate(302.480415, 98.096697)"><g><path d="M 6.875 -0.390625 C 6.019531 -1.242188 5.59375 -2.285156 5.59375 -3.515625 C 5.59375 -4.742188 6.019531 -5.796875 6.875 -6.671875 C 7.726562 -7.554688 8.765625 -8 9.984375 -8 C 11.210938 -8 12.265625 -7.554688 13.140625 -6.671875 C 14.023438 -5.796875 14.46875 -4.742188 14.46875 -3.515625 C 14.46875 -2.285156 14.023438 -1.242188 13.140625 -0.390625 C 12.265625 0.453125 11.210938 0.875 9.984375 0.875 C 8.765625 0.875 7.726562 0.453125 6.875 -0.390625 Z M 6.875 -0.390625 "/></g></g></g><g clip-path="url(#0c391607e6)"><g clip-path="url(#7ab12990fa)"><g clip-path="url(#e4394f8a5d)"><path fill="#212427" d="M 253.253906 120.765625 L 334.597656 120.726562 L 334.636719 39.382812 L 330.269531 39.386719 L 330.242188 116.371094 L 253.257812 116.417969 Z M 253.253906 120.765625 " fill-opacity="1" fill-rule="nonzero"/></g></g></g><g clip-path="url(#8f155f03cc)"><g clip-path="url(#5874e0b789)"><g clip-path="url(#866608ffc4)"><path fill="#212427" d="M 40.472656 110.496094 L 40.507812 29.152344 L 121.855469 29.113281 L 121.851562 33.480469 L 44.863281 33.507812 L 44.820312 110.496094 Z M 40.472656 110.496094 " fill-opacity="1" fill-rule="nonzero"/></g></g></g></svg> 