<svg xmlns="http://www.w3.org/2000/svg" xmlns:xlink="http://www.w3.org/1999/xlink" width="500" zoomAndPan="magnify" viewBox="0 0 375 374.999991" height="500" preserveAspectRatio="xMidYMid meet" version="1.0"><defs><g/><clipPath id="ca7a6dcdd7"><path d="M 32.578125 8.679688 L 342.328125 8.679688 L 342.328125 366.429688 L 32.578125 366.429688 Z M 32.578125 8.679688 " clip-rule="nonzero"/></clipPath></defs><g clip-path="url(#ca7a6dcdd7)"><path fill="#fcfcf4" d="M 187.429688 8.679688 L 342.328125 98.117188 L 342.328125 276.992188 L 187.429688 366.429688 L 32.535156 276.992188 L 32.535156 98.117188 Z M 187.429688 8.679688 " fill-opacity="1" fill-rule="nonzero"/></g><g fill="#ff0000" fill-opacity="1"><g transform="translate(104.676103, 278.055753)"><g><path d="M 148.828125 -12.125 C 148.253906 -14 147.828125 -16.625 147.546875 -20 C 147.265625 -23.382812 147.078125 -27.050781 146.984375 -31 C 146.890625 -34.945312 146.796875 -38.988281 146.703125 -43.125 C 146.609375 -47.257812 146.28125 -51.207031 145.71875 -54.96875 C 144.59375 -62.476562 142.710938 -68.675781 140.078125 -73.5625 C 137.453125 -78.445312 134.257812 -82.4375 130.5 -85.53125 C 126.738281 -88.632812 122.414062 -91.078125 117.53125 -92.859375 C 112.644531 -94.648438 107.382812 -96.300781 101.75 -97.8125 C 116.40625 -100.4375 127.675781 -105.644531 135.5625 -113.4375 C 143.457031 -121.238281 147.40625 -131.0625 147.40625 -142.90625 C 147.40625 -150.226562 145.851562 -156.800781 142.75 -162.625 C 139.65625 -168.457031 135.476562 -173.34375 130.21875 -177.28125 C 124.957031 -181.226562 118.707031 -184.234375 111.46875 -186.296875 C 104.238281 -188.367188 96.582031 -189.40625 88.5 -189.40625 L 9.015625 -189.40625 L 9.015625 -184.90625 L 33.265625 -184.90625 L 33.265625 -4.515625 L 9.015625 -4.515625 L 9.015625 0 L 84.84375 0 L 84.84375 -4.515625 L 60.59375 -4.515625 L 60.59375 -96.671875 L 84 -96.671875 C 87 -96.671875 90.191406 -96.15625 93.578125 -95.125 C 96.960938 -94.09375 100.109375 -92.117188 103.015625 -89.203125 C 105.929688 -86.296875 108.46875 -82.257812 110.625 -77.09375 C 112.789062 -71.925781 114.34375 -65.300781 115.28125 -57.21875 C 115.84375 -52.332031 116.171875 -47.351562 116.265625 -42.28125 C 116.359375 -37.207031 116.640625 -32.320312 117.109375 -27.625 C 117.578125 -22.925781 118.421875 -18.601562 119.640625 -14.65625 C 120.867188 -10.707031 122.796875 -7.328125 125.421875 -4.515625 C 127.867188 -1.878906 130.734375 -0.09375 134.015625 0.84375 C 137.304688 1.78125 140.832031 2.25 144.59375 2.25 C 147.789062 2.25 150.984375 1.921875 154.171875 1.265625 C 157.367188 0.609375 160.328125 -0.1875 163.046875 -1.125 C 165.773438 -2.0625 168.125 -3.046875 170.09375 -4.078125 C 172.070312 -5.117188 173.53125 -6.109375 174.46875 -7.046875 C 175.03125 -7.609375 175.3125 -8.171875 175.3125 -8.734375 C 175.3125 -9.296875 175.03125 -9.578125 174.46875 -9.578125 C 174.09375 -9.578125 173.53125 -9.390625 172.78125 -9.015625 C 169.019531 -6.390625 164.789062 -5.078125 160.09375 -5.078125 C 154.269531 -5.078125 150.515625 -7.425781 148.828125 -12.125 Z M 60.59375 -101.1875 L 60.59375 -184.90625 L 88.5 -184.90625 C 109.925781 -184.90625 120.640625 -172.59375 120.640625 -147.96875 L 120.640625 -137.828125 C 120.640625 -113.398438 109.925781 -101.1875 88.5 -101.1875 Z M 60.59375 -101.1875 "/></g></g></g><g fill="#00ffff" fill-opacity="1"><g transform="translate(93.321637, 285.15081)"><g><path d="M 148.828125 -12.125 C 148.253906 -14 147.828125 -16.625 147.546875 -20 C 147.265625 -23.382812 147.078125 -27.050781 146.984375 -31 C 146.890625 -34.945312 146.796875 -38.988281 146.703125 -43.125 C 146.609375 -47.257812 146.28125 -51.207031 145.71875 -54.96875 C 144.59375 -62.476562 142.710938 -68.675781 140.078125 -73.5625 C 137.453125 -78.445312 134.257812 -82.4375 130.5 -85.53125 C 126.738281 -88.632812 122.414062 -91.078125 117.53125 -92.859375 C 112.644531 -94.648438 107.382812 -96.300781 101.75 -97.8125 C 116.40625 -100.4375 127.675781 -105.644531 135.5625 -113.4375 C 143.457031 -121.238281 147.40625 -131.0625 147.40625 -142.90625 C 147.40625 -150.226562 145.851562 -156.800781 142.75 -162.625 C 139.65625 -168.457031 135.476562 -173.34375 130.21875 -177.28125 C 124.957031 -181.226562 118.707031 -184.234375 111.46875 -186.296875 C 104.238281 -188.367188 96.582031 -189.40625 88.5 -189.40625 L 9.015625 -189.40625 L 9.015625 -184.90625 L 33.265625 -184.90625 L 33.265625 -4.515625 L 9.015625 -4.515625 L 9.015625 0 L 84.84375 0 L 84.84375 -4.515625 L 60.59375 -4.515625 L 60.59375 -96.671875 L 84 -96.671875 C 87 -96.671875 90.191406 -96.15625 93.578125 -95.125 C 96.960938 -94.09375 100.109375 -92.117188 103.015625 -89.203125 C 105.929688 -86.296875 108.46875 -82.257812 110.625 -77.09375 C 112.789062 -71.925781 114.34375 -65.300781 115.28125 -57.21875 C 115.84375 -52.332031 116.171875 -47.351562 116.265625 -42.28125 C 116.359375 -37.207031 116.640625 -32.320312 117.109375 -27.625 C 117.578125 -22.925781 118.421875 -18.601562 119.640625 -14.65625 C 120.867188 -10.707031 122.796875 -7.328125 125.421875 -4.515625 C 127.867188 -1.878906 130.734375 -0.09375 134.015625 0.84375 C 137.304688 1.78125 140.832031 2.25 144.59375 2.25 C 147.789062 2.25 150.984375 1.921875 154.171875 1.265625 C 157.367188 0.609375 160.328125 -0.1875 163.046875 -1.125 C 165.773438 -2.0625 168.125 -3.046875 170.09375 -4.078125 C 172.070312 -5.117188 173.53125 -6.109375 174.46875 -7.046875 C 175.03125 -7.609375 175.3125 -8.171875 175.3125 -8.734375 C 175.3125 -9.296875 175.03125 -9.578125 174.46875 -9.578125 C 174.09375 -9.578125 173.53125 -9.390625 172.78125 -9.015625 C 169.019531 -6.390625 164.789062 -5.078125 160.09375 -5.078125 C 154.269531 -5.078125 150.515625 -7.425781 148.828125 -12.125 Z M 60.59375 -101.1875 L 60.59375 -184.90625 L 88.5 -184.90625 C 109.925781 -184.90625 120.640625 -172.59375 120.640625 -147.96875 L 120.640625 -137.828125 C 120.640625 -113.398438 109.925781 -101.1875 88.5 -101.1875 Z M 60.59375 -101.1875 "/></g></g></g><g fill="#000000" fill-opacity="1"><g transform="translate(98.998871, 281.603282)"><g><path d="M 148.828125 -12.125 C 148.253906 -14 147.828125 -16.625 147.546875 -20 C 147.265625 -23.382812 147.078125 -27.050781 146.984375 -31 C 146.890625 -34.945312 146.796875 -38.988281 146.703125 -43.125 C 146.609375 -47.257812 146.28125 -51.207031 145.71875 -54.96875 C 144.59375 -62.476562 142.710938 -68.675781 140.078125 -73.5625 C 137.453125 -78.445312 134.257812 -82.4375 130.5 -85.53125 C 126.738281 -88.632812 122.414062 -91.078125 117.53125 -92.859375 C 112.644531 -94.648438 107.382812 -96.300781 101.75 -97.8125 C 116.40625 -100.4375 127.675781 -105.644531 135.5625 -113.4375 C 143.457031 -121.238281 147.40625 -131.0625 147.40625 -142.90625 C 147.40625 -150.226562 145.851562 -156.800781 142.75 -162.625 C 139.65625 -168.457031 135.476562 -173.34375 130.21875 -177.28125 C 124.957031 -181.226562 118.707031 -184.234375 111.46875 -186.296875 C 104.238281 -188.367188 96.582031 -189.40625 88.5 -189.40625 L 9.015625 -189.40625 L 9.015625 -184.90625 L 33.265625 -184.90625 L 33.265625 -4.515625 L 9.015625 -4.515625 L 9.015625 0 L 84.84375 0 L 84.84375 -4.515625 L 60.59375 -4.515625 L 60.59375 -96.671875 L 84 -96.671875 C 87 -96.671875 90.191406 -96.15625 93.578125 -95.125 C 96.960938 -94.09375 100.109375 -92.117188 103.015625 -89.203125 C 105.929688 -86.296875 108.46875 -82.257812 110.625 -77.09375 C 112.789062 -71.925781 114.34375 -65.300781 115.28125 -57.21875 C 115.84375 -52.332031 116.171875 -47.351562 116.265625 -42.28125 C 116.359375 -37.207031 116.640625 -32.320312 117.109375 -27.625 C 117.578125 -22.925781 118.421875 -18.601562 119.640625 -14.65625 C 120.867188 -10.707031 122.796875 -7.328125 125.421875 -4.515625 C 127.867188 -1.878906 130.734375 -0.09375 134.015625 0.84375 C 137.304688 1.78125 140.832031 2.25 144.59375 2.25 C 147.789062 2.25 150.984375 1.921875 154.171875 1.265625 C 157.367188 0.609375 160.328125 -0.1875 163.046875 -1.125 C 165.773438 -2.0625 168.125 -3.046875 170.09375 -4.078125 C 172.070312 -5.117188 173.53125 -6.109375 174.46875 -7.046875 C 175.03125 -7.609375 175.3125 -8.171875 175.3125 -8.734375 C 175.3125 -9.296875 175.03125 -9.578125 174.46875 -9.578125 C 174.09375 -9.578125 173.53125 -9.390625 172.78125 -9.015625 C 169.019531 -6.390625 164.789062 -5.078125 160.09375 -5.078125 C 154.269531 -5.078125 150.515625 -7.425781 148.828125 -12.125 Z M 60.59375 -101.1875 L 60.59375 -184.90625 L 88.5 -184.90625 C 109.925781 -184.90625 120.640625 -172.59375 120.640625 -147.96875 L 120.640625 -137.828125 C 120.640625 -113.398438 109.925781 -101.1875 88.5 -101.1875 Z M 60.59375 -101.1875 "/></g></g></g></svg>